<svg width="40" height="40" viewBox="0 0 40 40" fill="none" xmlns="http://www.w3.org/2000/svg">
  <!-- Background circle -->
  <circle cx="20" cy="20" r="19" fill="#2563EB" stroke="#1D4ED8" stroke-width="1"/>
  
  <!-- Stylized truck/vehicle icon -->
  <path d="M10 26 L30 26 L30 28 L26 28 L26 32 L22 32 L22 28 L18 28 L18 32 L14 32 L14 28 L10 28 Z" fill="white"/>
  
  <!-- Truck body -->
  <rect x="12" y="20" width="16" height="6" fill="white" rx="1"/>
  
  <!-- Wheels -->
  <circle cx="15" cy="30" r="2" fill="#1D4ED8"/>
  <circle cx="25" cy="30" r="2" fill="#1D4ED8"/>
  
  <!-- Route lines -->
  <path d="M32 24 L36 24 L37 22 L38 22 L39 24 L40 24" stroke="#2563EB" stroke-width="2" stroke-linecap="round"/>
  <path d="M32 28 L36 28 L37 30 L38 30 L39 28 L40 28" stroke="#2563EB" stroke-width="2" stroke-linecap="round"/>
  
  <!-- Globe element -->
  <circle cx="32" cy="16" r="3" fill="none" stroke="#2563EB" stroke-width="1.5"/>
  <path d="M29 16 L35 16" stroke="#2563EB" stroke-width="1.5"/>
  <path d="M32 13 L32 19" stroke="#2563EB" stroke-width="1.5"/>
</svg> 